<svg width="40" height="40" viewBox="0 0 40 40" fill="none" xmlns="http://www.w3.org/2000/svg">
<mask id="mask0_449_2069" style="mask-type:alpha" maskUnits="userSpaceOnUse" x="0" y="0" width="40" height="40">
<rect width="40" height="40" fill="#D9D9D9"/>
</mask>
<g mask="url(#mask0_449_2069)">
<path d="M20.0002 26.6667L26.6668 20L20.0002 13.3333L17.6668 15.6667L20.3335 18.3333H13.3335V21.6667H20.3335L17.6668 24.3333L20.0002 26.6667ZM20.0002 36.6667C17.6946 36.6667 15.5279 36.2292 13.5002 35.3542C11.4724 34.4792 9.7085 33.2917 8.2085 31.7917C6.7085 30.2917 5.521 28.5278 4.646 26.5C3.771 24.4722 3.3335 22.3056 3.3335 20C3.3335 17.6945 3.771 15.5278 4.646 13.5C5.521 11.4722 6.7085 9.70834 8.2085 8.20834C9.7085 6.70834 11.4724 5.52084 13.5002 4.64584C15.5279 3.77084 17.6946 3.33334 20.0002 3.33334C22.3057 3.33334 24.4724 3.77084 26.5002 4.64584C28.5279 5.52084 30.2918 6.70834 31.7918 8.20834C33.2918 9.70834 34.4793 11.4722 35.3543 13.5C36.2293 15.5278 36.6668 17.6945 36.6668 20C36.6668 22.3056 36.2293 24.4722 35.3543 26.5C34.4793 28.5278 33.2918 30.2917 31.7918 31.7917C30.2918 33.2917 28.5279 34.4792 26.5002 35.3542C24.4724 36.2292 22.3057 36.6667 20.0002 36.6667ZM20.0002 33.3333C23.7224 33.3333 26.8752 32.0417 29.4585 29.4583C32.0418 26.875 33.3335 23.7222 33.3335 20C33.3335 16.2778 32.0418 13.125 29.4585 10.5417C26.8752 7.95834 23.7224 6.66668 20.0002 6.66668C16.2779 6.66668 13.1252 7.95834 10.5418 10.5417C7.9585 13.125 6.66683 16.2778 6.66683 20C6.66683 23.7222 7.9585 26.875 10.5418 29.4583C13.1252 32.0417 16.2779 33.3333 20.0002 33.3333Z" fill="black"/>
</g>
</svg>
