<svg width="24" height="24" viewBox="0 0 24 24" fill="none" xmlns="http://www.w3.org/2000/svg">
<path d="M12 16.925C12.2 16.925 12.375 16.85 12.525 16.7C12.675 16.55 12.75 16.375 12.75 16.175C12.75 15.975 12.675 15.8 12.525 15.65C12.375 15.5 12.2 15.425 12 15.425C11.8 15.425 11.625 15.5 11.475 15.65C11.325 15.8 11.25 15.975 11.25 16.175C11.25 16.375 11.325 16.55 11.475 16.7C11.625 16.85 11.8 16.925 12 16.925ZM12 12.75C12.2 12.75 12.375 12.675 12.525 12.525C12.675 12.375 12.75 12.2 12.75 12C12.75 11.8 12.675 11.625 12.525 11.475C12.375 11.325 12.2 11.25 12 11.25C11.8 11.25 11.625 11.325 11.475 11.475C11.325 11.625 11.25 11.8 11.25 12C11.25 12.2 11.325 12.375 11.475 12.525C11.625 12.675 11.8 12.75 12 12.75ZM12 8.575C12.2 8.575 12.375 8.5 12.525 8.35C12.675 8.2 12.75 8.025 12.75 7.825C12.75 7.625 12.675 7.45 12.525 7.3C12.375 7.15 12.2 7.075 12 7.075C11.8 7.075 11.625 7.15 11.475 7.3C11.325 7.45 11.25 7.625 11.25 7.825C11.25 8.025 11.325 8.2 11.475 8.35C11.625 8.5 11.8 8.575 12 8.575ZM20.5 20H3.5C3.0875 20 2.73438 19.8531 2.44063 19.5594C2.14688 19.2656 2 18.9125 2 18.5V14.675C2.61667 14.5417 3.12917 14.2292 3.5375 13.7375C3.94583 13.2458 4.15 12.6667 4.15 12C4.15 11.3333 3.94583 10.75 3.5375 10.25C3.12917 9.75 2.61667 9.44167 2 9.325V5.5C2 5.0875 2.14688 4.73438 2.44063 4.44063C2.73438 4.14688 3.0875 4 3.5 4H20.5C20.9125 4 21.2656 4.14688 21.5594 4.44063C21.8531 4.73438 22 5.0875 22 5.5V9.325C21.3833 9.44167 20.8708 9.75 20.4625 10.25C20.0542 10.75 19.85 11.3333 19.85 12C19.85 12.6667 20.0542 13.2458 20.4625 13.7375C20.8708 14.2292 21.3833 14.5417 22 14.675V18.5C22 18.9125 21.8531 19.2656 21.5594 19.5594C21.2656 19.8531 20.9125 20 20.5 20ZM20.5 18.5V15.775C19.8667 15.3417 19.35 14.8 18.95 14.15C18.55 13.5 18.35 12.7833 18.35 12C18.35 11.2167 18.55 10.5 18.95 9.85C19.35 9.2 19.8667 8.65833 20.5 8.225V5.5H3.5V8.225C4.15 8.65833 4.67083 9.2 5.0625 9.85C5.45417 10.5 5.65 11.2167 5.65 12C5.65 12.7833 5.45417 13.5 5.0625 14.15C4.67083 14.8 4.15 15.3417 3.5 15.775V18.5H20.5Z" fill="black"/>
</svg>
